<svg width="242" height="83" viewBox="0 0 242 83" fill="none" xmlns="http://www.w3.org/2000/svg">
<path d="M131.676 66.0929C128.946 63.7431 126.31 61.2346 123.77 58.5673C121.293 55.8365 118.975 53.0422 116.816 50.1844C114.72 47.3265 112.783 44.437 111.005 41.5156C109.29 38.5308 107.829 35.6095 106.623 32.7516C104.464 35.1014 102.304 37.4829 100.145 39.8962C98.0493 42.246 96.1758 44.6275 94.5246 47.0408C92.8735 49.3905 91.5398 51.772 90.5237 54.1853C89.4441 56.5351 88.9043 58.8848 88.9043 61.2346C88.9043 64.0289 89.3806 66.4422 90.3332 68.4744C91.2223 70.4431 92.4289 72.0626 93.9531 73.3327C95.4773 74.6028 97.2237 75.5237 99.1924 76.0953C101.161 76.6668 103.193 76.9526 105.289 76.9526C109.481 76.9526 113.926 75.9682 118.626 73.9995C123.325 72.0308 127.675 69.3953 131.676 66.0929ZM119.864 9.6033C119.864 7.38055 119.356 5.79287 118.34 4.84027C117.387 3.82416 116.339 3.3161 115.196 3.3161C114.244 3.3161 113.227 3.63363 112.148 4.26871C111.132 4.90378 110.179 5.82463 109.29 7.03126C108.464 8.17439 107.766 9.57155 107.194 11.2227C106.623 12.8739 106.337 14.6839 106.337 16.6526C106.337 20.2725 107.004 24.1147 108.337 28.1791C109.925 26.528 111.418 24.9085 112.815 23.3208C114.212 21.7332 115.418 20.1772 116.435 18.6531C117.514 17.0654 118.34 15.5412 118.911 14.0806C119.546 12.5564 119.864 11.064 119.864 9.6033ZM156.539 79.1436C156.539 79.3341 156.412 79.5246 156.158 79.7152C155.904 79.9057 155.523 80.0009 155.015 80.0009C151.205 78.7943 147.458 77.1114 143.774 74.9521C140.091 72.7294 136.503 70.1573 133.01 67.236C130.597 69.0777 128.088 70.7607 125.484 72.2848C122.881 73.809 120.213 75.1109 117.482 76.1905C114.815 77.2701 112.116 78.0957 109.385 78.6673C106.718 79.2389 104.146 79.5246 101.669 79.5246C99.2559 79.5246 96.9697 79.1754 94.8104 78.4768C92.6512 77.8417 90.7777 76.8573 89.19 75.5237C87.6024 74.1265 86.364 72.4118 85.4749 70.3796C84.5223 68.3474 84.046 65.9659 84.046 63.2351C84.046 60.3137 84.7128 57.4559 86.0464 54.6616C87.3801 51.8038 89.0948 49.0095 91.1905 46.2787C93.2863 43.5479 95.6043 40.8806 98.1446 38.2768C100.748 35.673 103.289 33.1327 105.765 30.6559C103.924 25.7024 103.003 21.2251 103.003 17.2242C103.003 14.8744 103.416 12.7151 104.241 10.7464C105.13 8.77771 106.242 7.09477 107.575 5.69761C108.909 4.30046 110.37 3.22084 111.957 2.45875C113.609 1.63316 115.164 1.22036 116.625 1.22036C118.34 1.22036 119.896 1.79193 121.293 2.93506C122.69 4.01467 123.389 5.82463 123.389 8.36491C123.389 9.95259 122.976 11.6038 122.15 13.3185C121.388 15.0332 120.34 16.8114 119.007 18.6531C117.736 20.4313 116.212 22.3047 114.434 24.2734C112.719 26.1787 110.909 28.1474 109.004 30.1796C111.1 35.9588 114.212 41.8332 118.34 47.8028C122.531 53.709 127.612 59.2341 133.582 64.3782C136.82 61.4569 139.424 58.2498 141.393 54.7569C143.362 51.264 144.346 47.6123 144.346 43.8019C144.346 42.5317 144.155 41.2616 143.774 39.9915C143.457 38.6578 142.79 37.2607 141.774 35.8C141.774 35.673 141.964 35.546 142.346 35.4189C142.727 35.2284 143.076 35.1332 143.393 35.1332C144.282 35.1332 144.981 35.4507 145.489 36.0858C146.061 36.6573 146.473 37.3559 146.728 38.1815C147.045 39.0071 147.236 39.8644 147.299 40.7535C147.426 41.5791 147.49 42.246 147.49 42.754C147.49 46.9455 146.315 51.0099 143.965 54.9474C141.679 58.8213 138.694 62.3777 135.01 65.6166C141.171 70.8877 148.125 75.1744 155.873 78.4768C156.317 78.7308 156.539 78.9531 156.539 79.1436Z" fill="#FFA55C"/>
<path d="M20.24 45.128C20.24 43.144 20.112 41.496 19.856 40.184C19.632 38.872 19.312 38.216 18.896 38.216C18.64 38.216 18.4 38.408 18.176 38.792C17.952 39.144 17.76 39.656 17.6 40.328C17.472 40.968 17.36 41.736 17.264 42.632C17.2 43.496 17.168 44.44 17.168 45.464C17.168 47.288 17.296 49.256 17.552 51.368C17.808 53.448 18.256 55.464 18.896 57.416C19.344 55.368 19.68 53.272 19.904 51.128C20.128 48.952 20.24 46.952 20.24 45.128ZM40.352 23.336C40.352 23.496 40.288 23.624 40.16 23.72C40.032 23.816 39.872 23.928 39.68 24.056C38.72 24.632 37.936 25.432 37.328 26.456C36.72 27.48 36.224 28.6 35.84 29.816C35.488 31.032 35.248 32.28 35.12 33.56C34.992 34.808 34.928 35.96 34.928 37.016C34.928 37.752 34.96 38.664 35.024 39.752C35.12 40.808 35.216 41.976 35.312 43.256C35.44 44.536 35.536 45.896 35.6 47.336C35.696 48.744 35.744 50.184 35.744 51.656C35.744 53.736 35.616 55.752 35.36 57.704C35.136 59.656 34.672 61.4 33.968 62.936C33.296 64.472 32.352 65.704 31.136 66.632C29.92 67.56 28.336 68.024 26.384 68.024C25.488 68.024 24.64 67.848 23.84 67.496C23.072 67.176 22.352 66.712 21.68 66.104C21.04 65.496 20.448 64.792 19.904 63.992C19.392 63.192 18.928 62.312 18.512 61.352C18.096 62.472 17.6 63.512 17.024 64.472C16.48 65.432 15.872 66.264 15.2 66.968C14.528 67.672 13.792 68.216 12.992 68.6C12.192 68.984 11.344 69.176 10.448 69.176C9.072 69.176 7.904 68.824 6.944 68.12C6.016 67.416 5.248 66.488 4.64 65.336C4.032 64.216 3.552 62.936 3.2 61.496C2.88 60.024 2.64 58.536 2.48 57.032C2.32 55.496 2.208 54.008 2.144 52.568C2.112 51.096 2.08 49.8 2.048 48.68C1.984 46.664 2.016 44.76 2.144 42.968C2.304 41.144 2.48 39.512 2.672 38.072C2.864 36.6 3.056 35.336 3.248 34.28C3.44 33.224 3.568 32.44 3.632 31.928C3.664 31.736 3.856 31.608 4.208 31.544C4.592 31.48 4.928 31.448 5.216 31.448C5.44 31.448 5.632 31.48 5.792 31.544C5.952 31.576 6.032 31.672 6.032 31.832C6.032 32.024 5.952 32.36 5.792 32.84C5.632 33.288 5.392 34.152 5.072 35.432C4.944 36.008 4.8 36.84 4.64 37.928C4.512 38.984 4.384 40.184 4.256 41.528C4.16 42.872 4.08 44.312 4.016 45.848C3.952 47.352 3.92 48.824 3.92 50.264C3.92 51.384 3.968 52.616 4.064 53.96C4.16 55.272 4.32 56.584 4.544 57.896C4.768 59.176 5.072 60.424 5.456 61.64C5.84 62.856 6.304 63.928 6.848 64.856C7.424 65.784 8.096 66.52 8.864 67.064C9.632 67.64 10.528 67.928 11.552 67.928C12.32 67.928 13.024 67.736 13.664 67.352C14.304 66.968 14.896 66.424 15.44 65.72C15.984 65.048 16.464 64.248 16.88 63.32C17.328 62.392 17.728 61.384 18.08 60.296C17.344 58.28 16.8 56.136 16.448 53.864C16.096 51.592 15.92 49.496 15.92 47.576C15.92 46.168 15.968 44.776 16.064 43.4C16.192 42.024 16.368 40.792 16.592 39.704C16.816 38.616 17.104 37.736 17.456 37.064C17.808 36.392 18.224 36.056 18.704 36.056C19.088 36.056 19.424 36.296 19.712 36.776C20.032 37.256 20.288 37.912 20.48 38.744C20.704 39.576 20.864 40.568 20.96 41.72C21.088 42.84 21.152 44.056 21.152 45.368C21.152 47.48 21.008 49.704 20.72 52.04C20.432 54.344 19.984 56.6 19.376 58.808C19.792 59.928 20.272 60.968 20.816 61.928C21.36 62.856 21.968 63.672 22.64 64.376C23.344 65.08 24.112 65.624 24.944 66.008C25.808 66.424 26.752 66.632 27.776 66.632C29.184 66.632 30.336 66.28 31.232 65.576C32.128 64.904 32.832 63.976 33.344 62.792C33.856 61.576 34.208 60.184 34.4 58.616C34.592 57.016 34.688 55.304 34.688 53.48C34.688 51.848 34.624 50.168 34.496 48.44C34.4 46.712 34.288 45 34.16 43.304C34.032 41.576 33.904 39.912 33.776 38.312C33.68 36.68 33.632 35.176 33.632 33.8C33.632 32.808 33.776 31.656 34.064 30.344C34.384 29.032 34.8 27.8 35.312 26.648C35.856 25.464 36.464 24.472 37.136 23.672C37.84 22.84 38.576 22.424 39.344 22.424C39.568 22.424 39.792 22.536 40.016 22.76C40.24 22.952 40.352 23.144 40.352 23.336ZM55.3396 55.208C55.3396 54.728 55.2596 54.344 55.0996 54.056C54.9396 53.736 54.6836 53.576 54.3316 53.576C53.7876 53.576 53.3716 53.848 53.0836 54.392C52.7956 54.904 52.6676 55.56 52.6996 56.36C52.7956 58.056 53.0996 59.48 53.6116 60.632C54.1556 59.896 54.5716 59.064 54.8596 58.136C55.1796 57.208 55.3396 56.232 55.3396 55.208ZM68.2996 55.16C68.0756 55.64 67.8356 56.136 67.5796 56.648C67.3236 57.128 67.0356 57.608 66.7156 58.088C65.0836 60.52 63.4356 62.328 61.7716 63.512C60.1076 64.696 58.5556 65.288 57.1156 65.288C55.2916 65.288 53.8996 64.424 52.9396 62.696C51.8196 63.816 50.5556 64.664 49.1476 65.24C47.7716 65.816 46.4116 66.104 45.0676 66.104C44.2676 66.104 43.4996 65.992 42.7636 65.768C42.0596 65.544 41.4516 65.208 40.9396 64.76C40.3956 64.28 39.9636 63.688 39.6436 62.984C39.3236 62.248 39.1636 61.4 39.1636 60.44C39.1636 59.288 39.4356 58.12 39.9796 56.936C40.4916 55.72 41.2116 54.632 42.1396 53.672C43.0996 52.68 44.2196 51.864 45.4996 51.224C46.7796 50.584 48.1716 50.264 49.6756 50.264C50.8916 50.264 51.8356 50.44 52.5076 50.792C53.1796 51.112 53.5156 51.416 53.5156 51.704C53.5156 51.832 53.4516 51.928 53.3236 51.992C53.1956 52.056 53.0836 52.088 52.9876 52.088C52.9556 52.056 52.9236 52.04 52.8916 52.04H52.8436C52.4596 51.688 52.0276 51.416 51.5476 51.224C51.0676 51 50.3636 50.888 49.4356 50.888C48.1876 50.888 47.0516 51.16 46.0276 51.704C45.0356 52.216 44.1876 52.904 43.4836 53.768C42.7796 54.6 42.2356 55.528 41.8516 56.552C41.4676 57.576 41.2756 58.584 41.2756 59.576C41.2756 61.496 41.7236 62.888 42.6196 63.752C43.5156 64.616 44.6356 65.048 45.9796 65.048C47.0676 65.048 48.2036 64.776 49.3876 64.232C50.5716 63.688 51.6276 62.92 52.5556 61.928C52.0436 60.776 51.7876 59.272 51.7876 57.416C51.7876 56.2 52.0116 55.144 52.4596 54.248C52.9076 53.352 53.5476 52.904 54.3796 52.904C55.5316 52.904 56.1076 53.576 56.1076 54.92C56.1076 56.264 55.9156 57.48 55.5316 58.568C55.1476 59.624 54.6356 60.584 53.9956 61.448C54.8916 63.112 56.1396 63.944 57.7396 63.944C58.9556 63.944 60.2516 63.432 61.6276 62.408C63.0356 61.384 64.4116 59.896 65.7556 57.944C66.0756 57.464 66.3636 56.968 66.6196 56.456C66.8756 55.944 67.1316 55.432 67.3876 54.92L68.2996 55.16ZM74.9668 33.704C74.9668 31.88 74.6628 30.424 74.0547 29.336C73.4788 28.216 72.5028 27.656 71.1268 27.656C70.6468 27.656 70.1988 27.816 69.7828 28.136C69.3988 28.424 69.0628 28.824 68.7748 29.336C68.4868 29.848 68.2628 30.44 68.1028 31.112C67.9428 31.784 67.8628 32.504 67.8628 33.272C67.8628 35.384 67.8788 37.304 67.9108 39.032C67.9428 40.76 67.9748 42.392 68.0068 43.928C68.0708 45.464 68.1348 46.952 68.1988 48.392C68.2628 49.832 68.3268 51.304 68.3908 52.808C69.3188 51.56 70.1828 50.136 70.9828 48.536C71.7828 46.904 72.4708 45.24 73.0468 43.544C73.6548 41.816 74.1188 40.104 74.4388 38.408C74.7908 36.712 74.9668 35.144 74.9668 33.704ZM92.3428 55.16C92.1188 55.64 91.8788 56.136 91.6228 56.648C91.3988 57.16 91.1108 57.64 90.7588 58.088C88.9988 60.584 86.9988 62.552 84.7588 63.992C82.5188 65.4 80.2948 66.104 78.0868 66.104C76.7108 66.104 75.3988 65.784 74.1508 65.144C72.9028 64.536 71.7988 63.544 70.8388 62.168C70.7108 62.008 70.6468 61.864 70.6468 61.736C70.6468 61.448 70.8388 61.304 71.2228 61.304C71.2548 61.304 71.3668 61.336 71.5588 61.4C71.8148 61.4 72.1028 61.496 72.4228 61.688C72.7748 61.848 73.2708 61.928 73.9108 61.928C74.9028 61.928 75.8308 61.752 76.6948 61.4C77.5588 61.048 78.2948 60.6 78.9028 60.056C79.5428 59.48 80.0388 58.84 80.3907 58.136C80.7428 57.4 80.9188 56.648 80.9188 55.88C80.9188 54.92 80.6628 54.088 80.1508 53.384C79.6708 52.68 78.8388 52.328 77.6548 52.328C76.4388 52.328 75.3188 52.76 74.2948 53.624C73.2708 54.456 72.3428 55.48 71.5108 56.696C70.7108 57.88 70.0228 59.144 69.4468 60.488C68.8708 61.8 68.4388 62.952 68.1508 63.944C67.9908 64.488 67.8468 64.824 67.7188 64.952C67.5907 65.08 67.4467 65.144 67.2867 65.144C66.9347 65.144 66.7747 64.808 66.8067 64.136C66.8067 63.848 66.8227 63.496 66.8547 63.08C66.8867 62.664 66.9187 62.216 66.9507 61.736C66.9507 61.256 66.9667 60.776 66.9987 60.296C67.0307 59.784 67.0467 59.32 67.0467 58.904C67.0467 57.464 67.0147 55.816 66.9507 53.96C66.8867 52.072 66.8067 50.136 66.7107 48.152C66.6147 46.136 66.5347 44.136 66.4707 42.152C66.4067 40.168 66.3747 38.344 66.3747 36.68C66.3747 35.368 66.4707 34.104 66.6627 32.888C66.8547 31.64 67.1587 30.552 67.5747 29.624C67.9908 28.664 68.5188 27.912 69.1588 27.368C69.7988 26.792 70.5508 26.504 71.4148 26.504C72.3108 26.504 73.0628 26.664 73.6708 26.984C74.3108 27.272 74.8228 27.704 75.2068 28.28C75.5908 28.824 75.8628 29.496 76.0228 30.296C76.2148 31.064 76.3108 31.912 76.3108 32.84C76.3108 34.44 76.0868 36.2 75.6388 38.12C75.1908 40.008 74.5988 41.912 73.8628 43.832C73.1268 45.752 72.2788 47.608 71.3188 49.4C70.3908 51.16 69.4308 52.696 68.4388 54.008C68.5028 54.968 68.5348 55.96 68.5348 56.984C68.5668 58.008 68.6148 59.096 68.6788 60.248C69.4788 58.52 70.3588 57.032 71.3188 55.784C71.7348 55.24 72.1988 54.712 72.7108 54.2C73.2548 53.656 73.8148 53.176 74.3908 52.76C74.9988 52.344 75.6388 52.008 76.3108 51.752C77.0148 51.496 77.7508 51.368 78.5188 51.368C79.7348 51.368 80.7908 51.672 81.6868 52.28C82.5828 52.888 83.0308 53.864 83.0308 55.208C83.0308 56.488 82.7108 57.576 82.0708 58.472C81.4628 59.368 80.6948 60.12 79.7668 60.728C78.8388 61.304 77.8468 61.736 76.7908 62.024C75.7348 62.312 74.7748 62.488 73.9108 62.552C73.8468 62.552 73.8148 62.568 73.8148 62.6C73.8148 62.664 73.8628 62.76 73.9588 62.888C74.5988 63.624 75.3188 64.152 76.1188 64.472C76.9188 64.792 77.7508 64.952 78.6148 64.952C79.6708 64.952 80.7428 64.76 81.8307 64.376C82.9188 63.96 83.9588 63.432 84.9508 62.792C85.9428 62.12 86.8548 61.368 87.6868 60.536C88.5508 59.672 89.2548 58.808 89.7988 57.944C90.1188 57.464 90.4068 56.968 90.6628 56.456C90.9188 55.944 91.1748 55.432 91.4308 54.92L92.3428 55.16ZM99.1096 52.184C99.1096 51.32 98.8856 50.616 98.4376 50.072C98.0216 49.496 97.3336 49.208 96.3736 49.208C95.8616 49.208 95.3976 49.368 94.9816 49.688C94.5656 50.008 94.2136 50.44 93.9256 50.984C93.6376 51.496 93.4136 52.104 93.2536 52.808C93.0936 53.512 93.0136 54.248 93.0136 55.016C93.0136 56.232 93.1416 57.32 93.3976 58.28C93.6856 59.208 94.0856 60.024 94.5976 60.728C95.2696 60.184 95.8776 59.56 96.4216 58.856C96.9656 58.152 97.4296 57.416 97.8136 56.648C98.2296 55.88 98.5496 55.112 98.7736 54.344C98.9976 53.576 99.1096 52.856 99.1096 52.184ZM111.254 55.16C111.03 55.64 110.79 56.136 110.534 56.648C110.31 57.128 110.022 57.608 109.67 58.088C108.102 60.328 106.31 62.024 104.294 63.176C102.31 64.296 100.406 64.856 98.5816 64.856C97.5576 64.856 96.5976 64.68 95.7016 64.328C94.8376 63.976 94.0856 63.448 93.4456 62.744C92.8056 62.04 92.2936 61.16 91.9096 60.104C91.5256 59.048 91.3336 57.8 91.3336 56.36C91.3336 55.4 91.4776 54.44 91.7656 53.48C92.0536 52.52 92.4376 51.656 92.9176 50.888C93.4296 50.12 94.0056 49.496 94.6456 49.016C95.3176 48.536 96.0216 48.296 96.7576 48.296C97.9416 48.296 98.8056 48.648 99.3496 49.352C99.8936 50.024 100.166 50.888 100.166 51.944C100.166 53.384 99.7176 54.952 98.8216 56.648C97.9576 58.312 96.7096 59.864 95.0776 61.304C96.2936 62.68 97.8616 63.368 99.7816 63.368C101.222 63.368 102.726 62.936 104.294 62.072C105.862 61.176 107.334 59.8 108.71 57.944C109.062 57.496 109.35 57.016 109.574 56.504C109.83 55.96 110.086 55.432 110.342 54.92L111.254 55.16ZM152.839 43.064C151.655 43.064 150.519 43.192 149.431 43.448C148.375 43.704 147.431 44.008 146.599 44.36C145.799 44.712 145.143 45.08 144.631 45.464C144.151 45.848 143.911 46.184 143.911 46.472C143.911 46.856 144.359 47.048 145.255 47.048C146.791 47.048 148.247 46.68 149.623 45.944C151.031 45.208 152.295 44.248 153.415 43.064H152.839ZM166.807 50.264C166.807 51.832 166.359 53.528 165.463 55.352C164.599 57.176 163.399 58.984 161.863 60.776C160.327 62.568 158.503 64.296 156.391 65.96C154.279 67.624 152.007 69.096 149.575 70.376C147.143 71.656 144.583 72.664 141.895 73.4C139.207 74.168 136.519 74.552 133.831 74.552C133.383 74.552 132.887 74.536 132.343 74.504C131.831 74.472 131.351 74.392 130.903 74.264C130.455 74.168 130.071 73.992 129.751 73.736C129.431 73.512 129.271 73.192 129.271 72.776C129.271 72.2 129.559 71.64 130.135 71.096C130.711 70.584 131.447 70.104 132.343 69.656C133.239 69.208 134.215 68.808 135.271 68.456C136.327 68.104 137.335 67.8 138.295 67.544C139.287 67.288 140.151 67.08 140.887 66.92C141.623 66.792 142.119 66.728 142.375 66.728C142.567 66.728 142.711 66.776 142.807 66.872C142.903 66.968 142.951 67.064 142.951 67.16C142.951 67.32 142.871 67.4 142.711 67.4H142.087C141.255 67.4 140.199 67.56 138.919 67.88C137.639 68.2 136.391 68.6 135.175 69.08C133.959 69.56 132.919 70.088 132.055 70.664C131.191 71.272 130.759 71.832 130.759 72.344C130.759 72.696 130.871 72.968 131.095 73.16C131.351 73.384 131.655 73.56 132.007 73.688C132.359 73.816 132.727 73.896 133.111 73.928C133.495 73.992 133.831 74.024 134.119 74.024C136.391 74.024 138.711 73.64 141.079 72.872C143.479 72.104 145.799 71.08 148.039 69.8C150.311 68.552 152.439 67.096 154.423 65.432C156.439 63.8 158.199 62.104 159.703 60.344C161.207 58.552 162.391 56.776 163.255 55.016C164.119 53.224 164.551 51.56 164.551 50.024C164.551 48.136 163.767 46.568 162.199 45.32C160.663 44.04 158.119 43.304 154.567 43.112C153.127 44.456 151.543 45.544 149.815 46.376C148.119 47.208 146.391 47.624 144.631 47.624C143.383 47.624 142.759 47.32 142.759 46.712C142.759 46.328 143.015 45.896 143.527 45.416C144.071 44.904 144.807 44.424 145.735 43.976C146.695 43.528 147.831 43.16 149.143 42.872C150.455 42.552 151.895 42.392 153.463 42.392H154.039C155.095 41.144 155.943 39.784 156.583 38.312C157.223 36.808 157.543 35.336 157.543 33.896C157.543 32.936 157.367 32.024 157.015 31.16C156.695 30.264 156.151 29.496 155.383 28.856C154.647 28.216 153.671 27.704 152.455 27.32C151.271 26.936 149.831 26.744 148.135 26.744C146.983 26.744 145.383 26.904 143.335 27.224C141.319 27.544 139.127 28.04 136.759 28.712C134.423 29.352 132.039 30.168 129.607 31.16C127.175 32.152 124.967 33.304 122.983 34.616C120.999 35.928 119.383 37.416 118.135 39.08C116.887 40.744 116.263 42.584 116.263 44.6C116.263 44.856 116.215 45.08 116.119 45.272C116.023 45.432 115.927 45.512 115.831 45.512C115.703 45.512 115.607 45.384 115.543 45.128C115.447 44.84 115.399 44.376 115.399 43.736C115.687 41.656 116.535 39.768 117.943 38.072C119.351 36.376 121.095 34.872 123.175 33.56C125.223 32.216 127.479 31.064 129.943 30.104C132.407 29.144 134.839 28.36 137.239 27.752C139.671 27.112 141.927 26.648 144.007 26.36C146.119 26.04 147.847 25.88 149.191 25.88C151.143 25.88 152.791 26.072 154.135 26.456C155.511 26.808 156.631 27.304 157.495 27.944C158.359 28.552 158.983 29.288 159.367 30.152C159.751 31.016 159.943 31.928 159.943 32.888C159.943 34.456 159.511 36.088 158.647 37.784C157.815 39.448 156.679 41 155.239 42.44C157.287 42.536 159.047 42.808 160.519 43.256C161.991 43.672 163.191 44.232 164.119 44.936C165.047 45.608 165.719 46.408 166.135 47.336C166.583 48.232 166.807 49.208 166.807 50.264ZM141.367 62.888C141.367 63.336 141.335 63.656 141.271 63.848C141.207 64.04 141.031 64.136 140.743 64.136C140.103 64.2 139.783 63.56 139.783 62.216C139.751 57.8 139.703 53.768 139.639 50.12C139.607 46.472 139.559 43.32 139.495 40.664C139.463 37.976 139.431 35.848 139.399 34.28C139.367 32.712 139.351 31.816 139.351 31.592C139.351 31.336 139.431 31.16 139.591 31.064C139.751 30.968 139.943 30.888 140.167 30.824C140.423 30.824 140.615 30.904 140.743 31.064C140.903 31.224 140.983 31.416 140.983 31.64C140.983 34.2 140.999 36.84 141.031 39.56C141.063 42.248 141.095 44.936 141.127 47.624C141.191 50.312 141.239 52.952 141.271 55.544C141.335 58.136 141.367 60.584 141.367 62.888ZM185.465 55.208C185.465 54.728 185.385 54.344 185.225 54.056C185.065 53.736 184.809 53.576 184.457 53.576C183.913 53.576 183.497 53.848 183.209 54.392C182.921 54.904 182.793 55.56 182.825 56.36C182.921 58.056 183.225 59.48 183.737 60.632C184.281 59.896 184.697 59.064 184.985 58.136C185.305 57.208 185.465 56.232 185.465 55.208ZM198.425 55.16C198.201 55.64 197.961 56.136 197.705 56.648C197.449 57.128 197.161 57.608 196.841 58.088C195.209 60.52 193.561 62.328 191.897 63.512C190.233 64.696 188.681 65.288 187.241 65.288C185.417 65.288 184.025 64.424 183.065 62.696C181.945 63.816 180.681 64.664 179.273 65.24C177.897 65.816 176.537 66.104 175.193 66.104C174.393 66.104 173.625 65.992 172.889 65.768C172.185 65.544 171.577 65.208 171.065 64.76C170.521 64.28 170.089 63.688 169.769 62.984C169.449 62.248 169.289 61.4 169.289 60.44C169.289 59.288 169.561 58.12 170.105 56.936C170.617 55.72 171.337 54.632 172.265 53.672C173.225 52.68 174.345 51.864 175.625 51.224C176.905 50.584 178.297 50.264 179.801 50.264C181.017 50.264 181.961 50.44 182.633 50.792C183.305 51.112 183.641 51.416 183.641 51.704C183.641 51.832 183.577 51.928 183.449 51.992C183.321 52.056 183.209 52.088 183.113 52.088C183.081 52.056 183.049 52.04 183.017 52.04H182.969C182.585 51.688 182.153 51.416 181.673 51.224C181.193 51 180.489 50.888 179.561 50.888C178.313 50.888 177.177 51.16 176.153 51.704C175.161 52.216 174.313 52.904 173.609 53.768C172.905 54.6 172.361 55.528 171.977 56.552C171.593 57.576 171.401 58.584 171.401 59.576C171.401 61.496 171.849 62.888 172.745 63.752C173.641 64.616 174.761 65.048 176.105 65.048C177.193 65.048 178.329 64.776 179.513 64.232C180.697 63.688 181.753 62.92 182.681 61.928C182.169 60.776 181.913 59.272 181.913 57.416C181.913 56.2 182.137 55.144 182.585 54.248C183.033 53.352 183.673 52.904 184.505 52.904C185.657 52.904 186.233 53.576 186.233 54.92C186.233 56.264 186.041 57.48 185.657 58.568C185.273 59.624 184.761 60.584 184.121 61.448C185.017 63.112 186.265 63.944 187.865 63.944C189.081 63.944 190.377 63.432 191.753 62.408C193.161 61.384 194.537 59.896 195.881 57.944C196.201 57.464 196.489 56.968 196.745 56.456C197.001 55.944 197.257 55.432 197.513 54.92L198.425 55.16ZM205.092 33.704C205.092 31.88 204.788 30.424 204.18 29.336C203.604 28.216 202.628 27.656 201.252 27.656C200.772 27.656 200.324 27.816 199.908 28.136C199.524 28.424 199.188 28.824 198.9 29.336C198.612 29.848 198.388 30.44 198.228 31.112C198.068 31.784 197.988 32.504 197.988 33.272C197.988 35.384 198.004 37.304 198.036 39.032C198.068 40.76 198.1 42.392 198.132 43.928C198.196 45.464 198.26 46.952 198.324 48.392C198.388 49.832 198.452 51.304 198.516 52.808C199.444 51.56 200.308 50.136 201.108 48.536C201.908 46.904 202.596 45.24 203.172 43.544C203.78 41.816 204.244 40.104 204.564 38.408C204.916 36.712 205.092 35.144 205.092 33.704ZM222.468 55.16C222.244 55.64 222.004 56.136 221.748 56.648C221.524 57.16 221.236 57.64 220.884 58.088C219.124 60.584 217.124 62.552 214.884 63.992C212.644 65.4 210.42 66.104 208.212 66.104C206.836 66.104 205.524 65.784 204.276 65.144C203.028 64.536 201.924 63.544 200.964 62.168C200.836 62.008 200.772 61.864 200.772 61.736C200.772 61.448 200.964 61.304 201.348 61.304C201.38 61.304 201.492 61.336 201.684 61.4C201.94 61.4 202.228 61.496 202.548 61.688C202.9 61.848 203.396 61.928 204.036 61.928C205.028 61.928 205.956 61.752 206.82 61.4C207.684 61.048 208.42 60.6 209.028 60.056C209.668 59.48 210.164 58.84 210.516 58.136C210.868 57.4 211.044 56.648 211.044 55.88C211.044 54.92 210.788 54.088 210.276 53.384C209.796 52.68 208.964 52.328 207.78 52.328C206.564 52.328 205.444 52.76 204.42 53.624C203.396 54.456 202.468 55.48 201.636 56.696C200.836 57.88 200.148 59.144 199.572 60.488C198.996 61.8 198.564 62.952 198.276 63.944C198.116 64.488 197.972 64.824 197.844 64.952C197.716 65.08 197.572 65.144 197.412 65.144C197.06 65.144 196.9 64.808 196.932 64.136C196.932 63.848 196.948 63.496 196.98 63.08C197.012 62.664 197.044 62.216 197.076 61.736C197.076 61.256 197.092 60.776 197.124 60.296C197.156 59.784 197.172 59.32 197.172 58.904C197.172 57.464 197.14 55.816 197.076 53.96C197.012 52.072 196.932 50.136 196.836 48.152C196.74 46.136 196.66 44.136 196.596 42.152C196.532 40.168 196.5 38.344 196.5 36.68C196.5 35.368 196.596 34.104 196.788 32.888C196.98 31.64 197.284 30.552 197.7 29.624C198.116 28.664 198.644 27.912 199.284 27.368C199.924 26.792 200.676 26.504 201.54 26.504C202.436 26.504 203.188 26.664 203.796 26.984C204.436 27.272 204.948 27.704 205.332 28.28C205.716 28.824 205.988 29.496 206.148 30.296C206.34 31.064 206.436 31.912 206.436 32.84C206.436 34.44 206.212 36.2 205.764 38.12C205.316 40.008 204.724 41.912 203.988 43.832C203.252 45.752 202.404 47.608 201.444 49.4C200.516 51.16 199.556 52.696 198.564 54.008C198.628 54.968 198.66 55.96 198.66 56.984C198.692 58.008 198.74 59.096 198.804 60.248C199.604 58.52 200.484 57.032 201.444 55.784C201.86 55.24 202.324 54.712 202.836 54.2C203.38 53.656 203.94 53.176 204.516 52.76C205.124 52.344 205.764 52.008 206.436 51.752C207.14 51.496 207.876 51.368 208.644 51.368C209.86 51.368 210.916 51.672 211.812 52.28C212.708 52.888 213.156 53.864 213.156 55.208C213.156 56.488 212.836 57.576 212.196 58.472C211.588 59.368 210.82 60.12 209.892 60.728C208.964 61.304 207.972 61.736 206.916 62.024C205.86 62.312 204.9 62.488 204.036 62.552C203.972 62.552 203.94 62.568 203.94 62.6C203.94 62.664 203.988 62.76 204.084 62.888C204.724 63.624 205.444 64.152 206.244 64.472C207.044 64.792 207.876 64.952 208.74 64.952C209.796 64.952 210.868 64.76 211.956 64.376C213.044 63.96 214.084 63.432 215.076 62.792C216.068 62.12 216.98 61.368 217.812 60.536C218.676 59.672 219.38 58.808 219.924 57.944C220.244 57.464 220.532 56.968 220.788 56.456C221.044 55.944 221.3 55.432 221.556 54.92L222.468 55.16ZM229.235 52.184C229.235 51.32 229.011 50.616 228.563 50.072C228.147 49.496 227.459 49.208 226.499 49.208C225.987 49.208 225.523 49.368 225.107 49.688C224.691 50.008 224.339 50.44 224.051 50.984C223.763 51.496 223.539 52.104 223.379 52.808C223.219 53.512 223.139 54.248 223.139 55.016C223.139 56.232 223.267 57.32 223.523 58.28C223.811 59.208 224.211 60.024 224.723 60.728C225.395 60.184 226.003 59.56 226.547 58.856C227.091 58.152 227.555 57.416 227.939 56.648C228.355 55.88 228.675 55.112 228.899 54.344C229.123 53.576 229.235 52.856 229.235 52.184ZM241.379 55.16C241.155 55.64 240.915 56.136 240.659 56.648C240.435 57.128 240.147 57.608 239.795 58.088C238.227 60.328 236.435 62.024 234.419 63.176C232.435 64.296 230.531 64.856 228.707 64.856C227.683 64.856 226.723 64.68 225.827 64.328C224.963 63.976 224.211 63.448 223.571 62.744C222.931 62.04 222.419 61.16 222.035 60.104C221.651 59.048 221.459 57.8 221.459 56.36C221.459 55.4 221.603 54.44 221.891 53.48C222.179 52.52 222.563 51.656 223.043 50.888C223.555 50.12 224.131 49.496 224.771 49.016C225.443 48.536 226.147 48.296 226.883 48.296C228.067 48.296 228.931 48.648 229.475 49.352C230.019 50.024 230.291 50.888 230.291 51.944C230.291 53.384 229.843 54.952 228.947 56.648C228.083 58.312 226.835 59.864 225.203 61.304C226.419 62.68 227.987 63.368 229.907 63.368C231.347 63.368 232.851 62.936 234.419 62.072C235.987 61.176 237.459 59.8 238.835 57.944C239.187 57.496 239.475 57.016 239.699 56.504C239.955 55.96 240.211 55.432 240.467 54.92L241.379 55.16Z" fill="#1F1711"/>
</svg>
