<svg width="34" height="34" viewBox="0 0 34 34" fill="none" xmlns="http://www.w3.org/2000/svg">
<path d="M30.7732 5.08386H26.3642C26.5342 4.46033 26.5364 3.80295 26.3705 3.17832C26.2046 2.5537 25.8765 1.98403 25.4195 1.52706C24.7193 0.841179 23.7783 0.457032 22.7982 0.457032C21.8181 0.457032 20.877 0.841179 20.1769 1.52706L16.9998 4.7115L13.8321 1.52706C13.488 1.18258 13.0794 0.909302 12.6296 0.722851C12.1798 0.536399 11.6977 0.44043 11.2108 0.44043C10.7239 0.44043 10.2418 0.536399 9.79198 0.722851C9.34221 0.909302 8.93359 1.18258 8.58949 1.52706C8.13248 1.98403 7.80439 2.5537 7.63847 3.17832C7.47256 3.80295 7.47471 4.46033 7.64472 5.08386H3.2265C2.48953 5.08386 1.78275 5.37662 1.26163 5.89773C0.740514 6.41885 0.447754 7.12564 0.447754 7.86261V9.71511C0.448031 10.2655 0.613179 10.8032 0.921904 11.2589C1.23063 11.7145 1.66877 12.0672 2.17984 12.2716V28.9255C2.18326 30.1528 2.6723 31.3288 3.54008 32.1965C4.40787 33.0643 5.58386 33.5534 6.81109 33.5568H27.1886C28.4169 33.5568 29.5949 33.0688 30.4634 32.2003C31.3319 31.3318 31.8198 30.1538 31.8198 28.9255V12.2901C32.3324 12.0814 32.7714 11.7254 33.0814 11.267C33.3914 10.8086 33.5584 10.2685 33.5612 9.71511V7.86261C33.5612 7.49691 33.489 7.13482 33.3488 6.79708C33.2086 6.45934 33.0031 6.1526 32.744 5.89445C32.485 5.6363 32.1776 5.43181 31.8394 5.29271C31.5012 5.15361 31.1389 5.08264 30.7732 5.08386ZM9.8955 2.84048C10.2426 2.49545 10.7121 2.30179 11.2015 2.30179C11.6909 2.30179 12.1604 2.49545 12.5075 2.84048L14.7491 5.08386H9.61763C9.40639 4.73271 9.31897 4.32088 9.36934 3.9142C9.41971 3.50752 9.60497 3.12947 9.8955 2.84048ZM15.1473 31.7043H6.81109C6.07412 31.7043 5.36733 31.4115 4.84622 30.8904C4.3251 30.3693 4.03234 29.6625 4.03234 28.9255V12.4939H15.1473V31.7043ZM15.1473 10.6414H3.2265C2.98085 10.6414 2.74525 10.5438 2.57155 10.3701C2.39784 10.1964 2.30025 9.96076 2.30025 9.71511V7.86261C2.30025 7.61695 2.39784 7.38135 2.57155 7.20765C2.74525 7.03394 2.98085 6.93636 3.2265 6.93636H15.1473V10.6414ZM21.5014 2.84048C21.82 2.52371 22.2429 2.33354 22.6914 2.30538C23.1398 2.27721 23.5831 2.41298 23.9389 2.68739C24.2947 2.9618 24.5386 3.35616 24.6252 3.79703C24.7119 4.2379 24.6353 4.69523 24.4098 5.08386H19.2599L21.5014 2.84048ZM29.9673 28.9255C29.9673 29.6625 29.6746 30.3693 29.1535 30.8904C28.6323 31.4115 27.9256 31.7043 27.1886 31.7043H18.8523V12.4939H29.9673V28.9255ZM31.7087 9.71511C31.7087 9.96076 31.6111 10.1964 31.4374 10.3701C31.2637 10.5438 31.0281 10.6414 30.7824 10.6414H18.8523V6.93636H30.7824C31.0281 6.93636 31.2637 7.03394 31.4374 7.20765C31.6111 7.38135 31.7087 7.61695 31.7087 7.86261V9.71511Z" fill="#704174"/>
</svg>
